<svg width="1106" height="800" viewBox="0 0 1106 800" fill="none" xmlns="http://www.w3.org/2000/svg">
<rect width="1106" height="800" fill="#E5E5E5"/>
<path id="Backdrop" d="M1105.12 70.19C1101.4 101.8 1075.31 126.83 1069.12 158.05C1068.33 162.145 1067.84 166.293 1067.66 170.46C1066.77 188.39 1070.32 206.69 1068.49 224.65C1065.08 258.33 1044.61 284.65 1018.62 307.46C998.96 324.67 976.14 339.81 955.15 354.46C901.71 391.79 851.59 438.92 829.64 500.3C815.01 541.23 813.89 585.71 803.15 627.83C792.41 669.95 767.95 713.05 726.61 726.48C682.24 740.9 633.35 716.86 587.69 726.36C538.69 736.56 503.94 782.87 455.59 795.95C394.16 812.57 332.94 771.73 269.88 763.22C239.6 759.13 208.78 762.6 178.34 759.98C144.479 757.026 111.694 746.606 82.34 729.47C72.34 723.6 62.23 716.39 57.58 705.73C53.58 696.52 54.19 686.02 55.42 676.05C60.02 639.05 71.66 598.83 53.35 566.31C36.46 536.31 -4.46997 514.85 1.60003 480.98C5.26003 460.6 25.26 447.87 43.88 438.74C82.2 419.91 123.02 405.17 157.27 379.74C181.77 361.52 202.87 336.1 211.87 307.51C215.548 296.084 217.057 284.071 216.32 272.09C215.06 253.19 208.52 231.97 219.92 216.84C224.86 210.28 232.43 206.25 240.04 203.17C268.74 191.57 300.62 190.9 330.46 182.66C340.69 179.85 350.519 175.747 359.71 170.45C377.91 159.91 392.56 144.38 396.1 124.11C398.17 112.23 396.33 99.26 402.26 88.76C412.26 70.96 432.03 63.52 454.11 61.1C481.44 58.1 512.39 62.79 533.11 65.1L535.18 65.32C561.79 68.09 588.18 62.2 614.11 53.32C642.11 43.81 669.48 30.87 696.11 21.67C698.61 20.8033 701.103 19.9733 703.59 19.18C723.029 12.9854 742.933 8.35398 763.11 5.33001C791.566 1.04681 820.409 -0.0666679 849.11 2.01001C863.666 3.05881 878.15 4.94191 892.49 7.65001C896.703 8.45001 900.91 9.30668 905.11 10.22C929.53 15.45 953.82 21.84 978.73 22.22C980.52 22.22 982.32 22.22 984.11 22.22C1013.82 21.71 1044.2 14.16 1072.39 23.28C1085.26 27.45 1097.5 35.65 1102.66 48.09C1105.53 55.02 1105.99 62.75 1105.12 70.19Z" fill="url(#paint0_linear)"/>
<path id="Audience" opacity="0.2" d="M1067.7 170.45H1042.03C1041.65 163.813 1039.33 157.434 1035.36 152.102C1031.39 146.77 1025.94 142.719 1019.69 140.45C1024.35 137.882 1028.03 133.835 1030.15 128.947C1032.26 124.059 1032.68 118.607 1031.36 113.45C1030.03 108.293 1027.03 103.723 1022.82 100.46C1018.61 97.1967 1013.44 95.4257 1008.11 95.4257C1002.79 95.4257 997.616 97.1967 993.408 100.46C989.2 103.723 986.197 108.293 984.871 113.45C983.545 118.607 983.972 124.059 986.084 128.947C988.197 133.835 991.875 137.882 996.54 140.45C990.291 142.719 984.844 146.77 980.874 152.102C976.903 157.434 974.583 163.813 974.2 170.45H973.98C973.415 163.996 971.018 157.837 967.071 152.699C963.124 147.562 957.791 143.659 951.7 141.45C955.245 139.498 958.239 136.682 960.404 133.263C962.569 129.844 963.833 125.933 964.081 121.894C964.329 117.854 963.551 113.818 961.82 110.16C960.089 106.502 957.461 103.341 954.181 100.971C950.901 98.6014 947.075 97.0994 943.058 96.605C939.042 96.1106 934.966 96.6398 931.208 98.1434C927.451 99.647 924.136 102.076 921.569 105.205C919.003 108.334 917.269 112.061 916.53 116.04C913.589 113.64 910.266 111.75 906.7 110.45C911.365 107.882 915.043 103.835 917.156 98.9471C919.268 94.0591 919.695 88.6073 918.369 83.45C917.043 78.2927 914.04 73.7228 909.832 70.4597C905.624 67.1967 900.45 65.4257 895.125 65.4257C889.8 65.4257 884.626 67.1967 880.418 70.4597C876.21 73.7228 873.207 78.2927 871.881 83.45C870.555 88.6073 870.982 94.0591 873.094 98.9471C875.207 103.835 878.885 107.882 883.55 110.45C876.976 112.831 871.296 117.182 867.284 122.908C863.272 128.634 861.123 135.458 861.13 142.45V170.45H850.13V148.45C850.137 141.458 847.988 134.634 843.976 128.908C839.964 123.182 834.284 118.831 827.71 116.45C832.375 113.882 836.053 109.835 838.166 104.947C840.278 100.059 840.705 94.6073 839.379 89.45C838.053 84.2927 835.05 79.7228 830.842 76.4597C826.634 73.1967 821.46 71.4257 816.135 71.4257C810.81 71.4257 805.636 73.1967 801.428 76.4597C797.22 79.7228 794.217 84.2927 792.891 89.45C791.565 94.6073 791.992 100.059 794.104 104.947C796.217 109.835 799.895 113.882 804.56 116.45C800.213 118.033 796.234 120.485 792.864 123.655C789.494 126.825 786.805 130.647 784.96 134.89C780.94 129.174 775.26 124.831 768.69 122.45C773.355 119.882 777.033 115.835 779.146 110.947C781.258 106.059 781.685 100.607 780.359 95.45C779.033 90.2927 776.03 85.7228 771.822 82.4597C767.614 79.1967 762.44 77.4257 757.115 77.4257C751.79 77.4257 746.616 79.1967 742.408 82.4597C738.2 85.7228 735.197 90.2927 733.871 95.45C732.545 100.607 732.972 106.059 735.085 110.947C737.197 115.835 740.875 119.882 745.54 122.45C738.291 125.087 732.151 130.103 728.12 136.68V132.45C728.127 125.458 725.978 118.634 721.966 112.908C717.954 107.182 712.274 102.831 705.7 100.45C710.365 97.8818 714.043 93.8351 716.156 88.9471C718.268 84.0591 718.695 78.6073 717.369 73.45C716.043 68.2927 713.04 63.7228 708.832 60.4597C704.624 57.1967 699.45 55.4257 694.125 55.4257C688.8 55.4257 683.626 57.1967 679.418 60.4597C675.21 63.7228 672.207 68.2927 670.881 73.45C669.555 78.6073 669.982 84.0591 672.094 88.9471C674.207 93.8351 677.885 97.8818 682.55 100.45C675.976 102.831 670.296 107.182 666.284 112.908C662.272 118.634 660.123 125.458 660.13 132.45V170.45H648.13C646.261 166.309 643.582 162.583 640.252 159.492C636.923 156.401 633.008 154.007 628.74 152.45C633.405 149.882 637.083 145.835 639.195 140.947C641.308 136.059 641.735 130.607 640.409 125.45C639.083 120.293 636.08 115.723 631.872 112.46C627.664 109.197 622.49 107.426 617.165 107.426C611.84 107.426 606.666 109.197 602.458 112.46C598.25 115.723 595.247 120.293 593.921 125.45C592.595 130.607 593.022 136.059 595.135 140.947C597.247 145.835 600.925 149.882 605.59 152.45C603.219 153.311 600.952 154.435 598.83 155.8C597.985 149.655 595.476 143.859 591.573 139.038C587.671 134.217 582.524 130.556 576.69 128.45C581.355 125.882 585.033 121.835 587.146 116.947C589.258 112.059 589.685 106.607 588.359 101.45C587.033 96.2927 584.03 91.7228 579.822 88.4597C575.614 85.1967 570.44 83.4257 565.115 83.4257C559.79 83.4257 554.616 85.1967 550.408 88.4597C546.2 91.7228 543.197 96.2927 541.871 101.45C540.545 106.607 540.972 112.059 543.085 116.947C545.197 121.835 548.875 125.882 553.54 128.45C548.531 130.28 544.021 133.26 540.374 137.15C536.726 141.041 534.043 145.733 532.54 150.85C528.787 146.616 524.037 143.385 518.72 141.45C523.385 138.882 527.063 134.835 529.176 129.947C531.288 125.059 531.715 119.607 530.389 114.45C529.063 109.293 526.06 104.723 521.852 101.46C517.644 98.1967 512.47 96.4257 507.145 96.4257C501.82 96.4257 496.646 98.1967 492.438 101.46C488.23 104.723 485.227 109.293 483.901 114.45C482.575 119.607 483.002 125.059 485.115 129.947C487.227 134.835 490.905 138.882 495.57 141.45C491.901 142.789 488.491 144.751 485.49 147.25C483.663 142.921 480.961 139.017 477.554 135.782C474.147 132.547 470.107 130.05 465.69 128.45C470.355 125.882 474.033 121.835 476.146 116.947C478.258 112.059 478.685 106.607 477.359 101.45C476.033 96.2927 473.03 91.7228 468.822 88.4597C464.614 85.1967 459.44 83.4257 454.115 83.4257C448.79 83.4257 443.616 85.1967 439.408 88.4597C435.2 91.7228 432.197 96.2927 430.871 101.45C429.545 106.607 429.972 112.059 432.085 116.947C434.197 121.835 437.875 125.882 442.54 128.45C435.966 130.831 430.286 135.182 426.274 140.908C422.262 146.634 420.113 153.458 420.12 160.45V170.45H359.72C350.526 175.726 340.697 179.809 330.47 182.6C300.63 190.84 268.75 191.51 240.05 203.11C232.44 206.19 224.87 210.22 219.93 216.78C208.53 231.91 215.07 253.13 216.33 272.03C217.064 284.011 215.551 296.024 211.87 307.45H1018.66C1044.66 284.69 1065.12 258.32 1068.53 224.64C1070.36 206.69 1066.81 188.39 1067.7 170.45Z" fill="black"/>
<g id="Player">
<g id="Group 1">
<g id="Player_2">
<path id="Vector" opacity="0.05" d="M773.26 519.52C773.26 519.52 773.61 532.17 762.36 534.63C751.11 537.09 766.93 544.47 773.26 542.71C779.59 540.95 805.6 518.11 805.6 518.11C805.6 518.11 796.46 504.05 790.49 504.05C790.45 504.06 779.56 522.33 773.26 519.52Z" fill="black"/>
<path id="Vector_2" opacity="0.05" d="M722.26 512.14C722.26 512.14 722.96 523.74 705.74 530.42C705.74 530.42 687.81 532.18 700.12 540.96C712.43 549.74 749.68 538.5 749.68 538.5C749.68 538.5 748.98 527.25 744.76 518.11C744.76 518.12 724.38 516.71 722.26 512.14Z" fill="black"/>
<path id="Vector_3" d="M856.65 269.33C851.22 262.92 839.65 286.79 839.65 286.79L797.52 296.45C794.818 295.62 792.427 293.996 790.66 291.79C794.194 291.922 797.696 291.089 800.792 289.38C803.888 287.671 806.459 285.151 808.23 282.09L797.37 281.48C796.27 281.488 795.178 281.292 794.15 280.9C792.07 279.95 791.15 277.64 790.03 275.65C787.028 270.195 782.128 266.032 776.26 263.95C772.37 262.57 768.03 262.09 764.69 259.69C762.28 257.96 760.64 255.41 758.69 253.18C749.44 242.5 734.12 239.54 719.98 237.7C717.48 237.37 714.63 237.16 712.75 238.82C711.46 239.95 710.95 241.72 709.83 243.02C707.92 245.25 704.69 245.7 701.78 246.25C698.116 246.815 694.613 248.148 691.5 250.16C689.963 251.169 688.657 252.494 687.669 254.045C686.681 255.597 686.034 257.34 685.77 259.16C685.21 264.71 689.26 270.02 688.51 275.55C688.28 277.25 687.6 278.87 687.51 280.55C687.517 282.166 687.773 283.772 688.27 285.31C689.49 290 690.43 294.88 689.6 299.65C688.77 304.42 685.85 309.07 681.28 310.84C687.15 312.136 693.291 311.288 698.59 308.45C703.73 305.51 707.51 300.08 707.69 294.23C707.69 294.09 707.69 293.95 707.69 293.81L708.3 294.05C708.39 294.38 708.48 294.73 708.56 295.1L709.47 295.36C709.815 297.449 709.815 299.581 709.47 301.67L703.14 306.73C703.14 306.73 703.14 307.1 703.22 307.73L703.14 307.79C703.14 307.79 703.14 308.09 703.21 308.62L690.83 316.34C682.823 322.492 676.891 330.948 673.83 340.57L662.6 358.05C662.6 358.05 655.36 364.82 651.38 365.89L617.71 395.11C617.71 395.11 606.05 401.46 606.1 407.8C606.1 407.927 606.1 408.057 606.1 408.19C606.1 408.317 606.1 408.443 606.1 408.57C606.1 408.69 606.127 408.81 606.18 408.93C606.18 409.05 606.25 409.16 606.29 409.28V409.34C606.29 409.45 606.37 409.56 606.42 409.67V409.74L606.58 410.06V410.14L606.76 410.44L606.82 410.53L607.02 410.82L607.1 410.92L607.33 411.2L607.43 411.31L607.68 411.57L607.8 411.69L608.07 411.94L608.21 412.07L608.51 412.32L608.67 412.45L609 412.69L609.17 412.82L609.55 413.08L609.71 413.19L610.31 413.55C623.31 421.03 626.6 401.79 626.6 401.79L665.7 376.13C665.7 376.13 697.92 346.91 697.92 340.5L704.92 343.5L704.8 344.76C704.8 344.76 704.8 345.04 704.8 345.53V345.83C704.8 345.83 704.44 360.83 723.26 364.72C723.26 364.72 740.47 381.99 740.99 387.48C740.99 387.59 740.99 387.69 740.99 387.8C740.99 387.91 740.99 387.85 740.99 387.88C740.69 392.08 744.74 400.31 745.99 402.82L739.14 408.55L739.21 409.55L739.14 409.61L739.4 413.17C731.65 421.52 720.4 433.91 719.23 436.69C717.42 440.97 717.42 450.23 721.76 459.85L726.47 502.25V514.6L724.3 513.6V516.4C723.252 515.996 722.365 515.262 721.77 514.31C721.77 514.31 721.77 514.44 721.77 514.67C721.71 516.74 720.6 526.77 704.77 532.82C704.77 532.82 694.27 533.82 694.54 538.16C694.43 539.62 695.59 541.49 698.97 543.87C711.64 552.78 749.97 541.38 749.97 541.38C749.97 541.38 749.97 541.26 749.97 541.03C749.97 541.03 749.25 529.63 744.9 520.36C744.9 520.36 743.9 520.29 742.37 520.14V517.51L740.79 517.24C740.743 512.245 741.236 507.259 742.26 502.37C744.664 491.037 745.362 479.409 744.33 467.87C746.122 470.12 748.131 472.186 750.33 474.04L773.18 510.28L775.88 515.83C774.88 516.55 773.88 517.18 773.06 517.69L777.65 521.94C776.623 522.354 775.477 522.354 774.45 521.94C774.45 521.94 774.81 534.77 763.23 537.26C758.61 538.26 758.43 540.04 760.28 541.72C762.74 544.39 770.71 546.93 774.81 545.81C781.33 544.03 808.12 520.87 808.12 520.87C805.746 517.346 803.051 514.048 800.07 511.02C797.45 508.4 794.58 506.27 792.19 506.27C792.19 506.27 791.64 507.18 790.71 508.57L787.85 505.92L787.56 506.19C787.32 505.4 787.1 504.6 786.91 503.81C786.91 503.81 781.36 478.38 764.36 459.12C764.36 459.12 761.01 456.35 766.19 447.2C766.19 447.2 774.57 437.26 781.88 426.48C792.51 428.55 803.45 427.7 811.75 420.04L811.64 419.38L812.11 418.97L808.49 396.52C808.49 396.52 810.12 375.32 783.69 358.21C783.69 358.21 769.39 340.57 764.32 318.12H764.03L764.32 314.23C767.58 316.72 802.32 312.09 802.32 312.09L848.32 292.85C850.93 291.42 858.2 281.51 858.17 274.33C858.308 272.532 857.766 270.747 856.65 269.33V269.33Z" fill="url(#paint1_linear)"/>
<path id="Vector_4" d="M788.95 292.52C790.137 294.029 791.628 295.271 793.327 296.165C795.026 297.059 796.894 297.586 798.81 297.71C795.871 300.438 792.44 302.583 788.7 304.03C777.88 308.28 764.78 307.03 755.46 299.95C753.27 298.28 751.17 296.29 748.46 295.64C746.14 295.07 743.7 295.64 741.3 295.51C738.3 295.333 735.434 294.21 733.112 292.302C730.791 290.394 729.134 287.799 728.38 284.89C727.69 281.96 727.97 278.89 727.47 275.89C727.388 275.381 727.278 274.877 727.14 274.38C725.74 269.38 719.2 264 713.69 265.46C708.49 266.83 705.82 275.01 705.93 279.69C706.04 284.84 708.53 289.76 708.37 294.91C708.19 300.68 704.52 306.04 699.53 308.91C694.407 311.693 688.449 312.524 682.76 311.25C687.2 309.5 690.03 304.91 690.84 300.25C691.65 295.59 690.73 290.73 689.55 286.11C689.066 284.59 688.817 283.005 688.81 281.41C688.9 279.72 689.56 278.12 689.81 276.41C690.54 270.96 686.61 265.72 687.15 260.25C687.401 258.467 688.027 256.756 688.985 255.231C689.943 253.706 691.212 252.401 692.71 251.4C695.73 249.414 699.139 248.098 702.71 247.54C705.53 247 708.71 246.54 710.53 244.35C711.62 243.07 712.11 241.35 713.36 240.2C715.18 238.57 717.95 238.78 720.36 239.1C734.09 240.92 748.95 243.83 757.94 254.37C759.82 256.57 761.41 259.09 763.75 260.79C766.99 263.16 771.2 263.63 774.98 264.99C780.7 267.076 785.452 271.195 788.33 276.56C789.33 278.56 790.33 280.8 792.33 281.74C793.327 282.129 794.389 282.326 795.46 282.32L806 282.92C804.31 285.929 801.827 288.416 798.82 290.109C795.813 291.802 792.399 292.636 788.95 292.52V292.52Z" fill="#F55F44"/>
<path id="Vector_5" d="M735.8 292.65C735.8 292.65 740.9 293.18 751.09 290.72C761.28 288.26 771.48 295.99 771.48 295.99L792.92 297.75L836.5 287.56C836.5 287.56 847.75 264.01 853.02 270.34C858.29 276.67 848.1 291.43 844.94 293.19L800.26 312.15C800.26 312.15 766.52 316.72 763.36 314.26L762.66 323.75L745.79 315.67L738.44 298.45L735.8 292.65Z" fill="#FDB797"/>
<path id="Vector_6" opacity="0.05" d="M844.93 292.82L800.29 311.82C800.29 311.82 766.55 316.39 763.39 313.93L762.69 323.42L745.82 315.34L738.44 298.12L736.13 293.05H735.8L738.44 298.85L745.82 316.07L762.69 324.15L763.39 314.66C766.55 317.12 800.29 312.55 800.29 312.55L844.93 293.55C847.51 292.12 854.74 282.06 854.49 274.96C854.26 281.98 847.43 291.45 844.93 292.82Z" fill="black"/>
<path id="Vector_7" d="M706.45 307.58L692.04 316.72C684.23 322.821 678.467 331.158 675.52 340.62L664.62 357.84C664.62 357.84 657.62 364.52 653.72 365.57L621.03 394.39C621.03 394.39 601.35 405.29 614.03 412.67C626.71 420.05 629.85 401.07 629.85 401.07L667.85 375.76C667.85 375.76 699.13 346.94 699.13 340.61L710.38 345.53L706.45 307.58Z" fill="#FDB797"/>
<path id="Vector_8" opacity="0.05" d="M699.07 339.92C699.07 346.25 667.79 375.07 667.79 375.07L629.79 400.38C629.79 400.38 626.63 419.38 613.97 411.98C611.07 410.29 609.87 408.41 609.74 406.53C609.6 408.65 610.74 410.78 613.97 412.69C626.62 420.07 629.79 401.09 629.79 401.09L667.79 375.78C667.79 375.78 699.07 346.96 699.07 340.63L710.32 345.55L710.25 344.81L699.07 339.92Z" fill="black"/>
<path id="Vector_9" d="M748.46 413.28C748.46 413.28 737.46 448.15 737.73 452.71C738 457.27 741.91 465.51 749.82 472.25L772.01 508L778.84 522.26L792.27 518.56C792.27 518.56 787.27 509.67 785.33 501.62C785.33 501.62 779.94 476.53 763.44 457.54C763.44 457.54 760.19 454.81 765.21 445.78C765.21 445.78 789.93 416.02 790.76 403.93L748.46 413.28Z" fill="#FDB797"/>
<path id="Vector_10" opacity="0.05" d="M748.46 413.28C748.46 413.28 737.46 448.15 737.73 452.71C738 457.27 741.91 465.51 749.82 472.25L772.01 508L778.84 522.26L792.27 518.56C792.27 518.56 787.27 509.67 785.33 501.62C785.33 501.62 779.94 476.53 763.44 457.54C763.44 457.54 760.19 454.81 765.21 445.78C765.21 445.78 789.93 416.02 790.76 403.93L748.46 413.28Z" fill="black"/>
<path id="Vector_11" opacity="0.1" d="M746.87 404.59C746.87 404.59 721.87 431.3 720.16 435.52C718.45 439.74 718.4 448.88 722.62 458.37L727.19 500.2V516.02L740.9 518.45C740.9 518.45 740.2 508.26 741.95 500.17C741.95 500.17 747.95 475.17 741.25 450.96C741.25 450.96 739.49 447.09 747.93 441.12C747.93 441.12 783.08 424.95 789.05 414.41L746.87 404.59Z" fill="black"/>
<path id="Vector_12" d="M746.52 404.59C746.52 404.59 721.52 431.3 719.81 435.52C718.1 439.74 718.05 448.88 722.27 458.37L726.84 500.2V516.02L740.55 518.45C740.55 518.45 739.85 508.26 741.6 500.17C741.6 500.17 747.6 475.17 740.9 450.96C740.9 450.96 739.14 447.09 747.58 441.12C747.58 441.12 782.73 424.95 788.7 414.41L746.52 404.59Z" fill="#FDB797"/>
<path id="Vector_13" opacity="0.05" d="M746.7 404.59L746.51 404.79L787.82 414.45C781.82 424.99 746.7 441.16 746.7 441.16C738.26 447.16 740.02 451 740.02 451C746.7 475.25 740.72 500.21 740.72 500.21C739.1 507.66 739.57 516.88 739.65 518.3L740.72 518.49C740.72 518.49 740.02 508.3 741.77 500.21C741.77 500.21 747.77 475.21 741.07 451C741.07 451 739.31 447.13 747.75 441.16C747.75 441.16 782.9 424.99 788.87 414.45L746.7 404.59Z" fill="black"/>
<path id="Vector_14" d="M708.26 290.36C708.26 290.36 713.18 298.09 708.26 308.29L713.18 333.6L733.57 330.79L743.41 319.54L735.63 292.45C735.63 292.45 729.3 294.91 728.63 277.69L708.26 290.36Z" fill="#FDB797"/>
<path id="Vector_15" opacity="0.1" d="M703.99 308.29C703.99 308.29 705.4 326.92 707.15 331.14L705.74 345.9C705.74 345.9 705.39 360.66 723.67 364.53C723.67 364.53 741.24 382.46 740.89 387.38C740.54 392.3 746.16 402.84 746.16 402.84L739.16 408.84L739.51 413.76L744.43 408.84C744.43 408.84 786.96 440.12 809.43 419.03L805.92 396.89C805.92 396.89 808.92 378.09 783.25 361.22C783.25 361.22 767.96 341.71 763.04 319.57C763.04 319.57 748.98 318.16 745.47 312.89L738.47 291.8L732.67 293.03L738.12 316.4C738.12 316.4 731.79 337.49 714.22 328.4L710.22 303.4L703.99 308.29Z" fill="black"/>
<path id="Vector_16" d="M703.99 307.23C703.99 307.23 705.4 325.86 707.15 330.08L705.74 344.84C705.74 344.84 705.39 359.6 723.67 363.47C723.67 363.47 741.24 381.4 740.89 386.32C740.54 391.24 746.16 401.78 746.16 401.78L739.16 407.78L739.51 412.7L744.43 407.78C744.43 407.78 786.96 439.06 809.43 417.97L805.92 395.83C805.92 395.83 807.5 374.92 781.84 358.05C781.84 358.05 767.96 340.65 763.04 318.51C763.04 318.51 748.98 317.1 745.47 311.83L738.47 290.74L732.67 291.97L738.12 315.34C738.12 315.34 731.79 336.43 714.22 327.34L710.22 302.34L703.99 307.23Z" fill="#252A62"/>
<path id="Vector_17" d="M573.66 395.63H517.33V395.98H573.66V395.63Z" fill="#B4ABAB"/>
<path id="Vector_18" d="M572.26 393.17H518.74V393.52H572.26V393.17Z" fill="#B4ABAB"/>
<path id="Vector_19" d="M568.74 390.71H519.79V391.06H568.74V390.71Z" fill="#B4ABAB"/>
<path id="Vector_20" d="M564.87 388.25H521.55V388.6H564.87V388.25Z" fill="#B4ABAB"/>
<path id="Vector_21" d="M561.01 385.79H524.01V386.14H561.01V385.79Z" fill="#B4ABAB"/>
<path id="Vector_22" d="M556.79 383.33H527.17V383.68H556.79V383.33Z" fill="#B4ABAB"/>
<path id="Vector_23" d="M550.46 380.87H532.09V381.22H550.46V380.87Z" fill="#B4ABAB"/>
<path id="Vector_24" d="M575.76 398.44H516.27V398.79H575.76V398.44Z" fill="#B4ABAB"/>
<path id="Vector_25" d="M576.82 401.25H516.27V401.6H576.82V401.25Z" fill="#B4ABAB"/>
<path id="Vector_26" d="M577.52 404.06H515.22V404.41H577.52V404.06Z" fill="#B4ABAB"/>
<path id="Vector_27" d="M578.34 406.87H515.22V407.22H578.34V406.87Z" fill="#B4ABAB"/>
<path id="Vector_28" d="M577.99 409.69H515.22V410.04H577.99V409.69Z" fill="#B4ABAB"/>
<path id="Vector_29" d="M576.93 412.5H515.92V412.85H576.93V412.5Z" fill="#B4ABAB"/>
<path id="Vector_30" d="M575.17 415.31H517.33V415.66H575.17V415.31Z" fill="#B4ABAB"/>
<path id="Vector_31" d="M572.71 418.12H517.33V418.47H572.71V418.12Z" fill="#B4ABAB"/>
<path id="Vector_32" d="M569.55 420.93H519.79V421.28H569.55V420.93Z" fill="#B4ABAB"/>
<path id="Vector_33" d="M565.68 423.74H522.25V424.09H565.68V423.74Z" fill="#B4ABAB"/>
<path id="Vector_34" d="M561.47 426.56H525.06V426.91H561.47V426.56Z" fill="#B4ABAB"/>
<path id="Vector_35" d="M556.55 429.37H530.69V429.72H556.55V429.37Z" fill="#B4ABAB"/>
<path id="Vector_36" d="M522.92 387.25H522.57V424.54H522.92V387.25Z" fill="#B4ABAB"/>
<path id="Vector_37" d="M520.81 390.06H520.46V422.08H520.81V390.06Z" fill="#B4ABAB"/>
<path id="Vector_38" d="M518.7 393.22H518.35V419.27H518.7V393.22Z" fill="#B4ABAB"/>
<path id="Vector_39" d="M516.59 398.14H516.24V414.7H516.59V398.14Z" fill="#B4ABAB"/>
<path id="Vector_40" d="M525.73 384.79H525.38V427H525.73V384.79Z" fill="#B4ABAB"/>
<path id="Vector_41" d="M528.54 383.03H528.19V428.41H528.54V383.03Z" fill="#B4ABAB"/>
<path id="Vector_42" d="M531.35 381.62H531V429.46H531.35V381.62Z" fill="#B4ABAB"/>
<path id="Vector_43" d="M534.17 380.57H533.82V430.52H534.17V380.57Z" fill="#B4ABAB"/>
<path id="Vector_44" d="M536.98 379.52H536.63V431.58H536.98V379.52Z" fill="#B4ABAB"/>
<path id="Vector_45" d="M539.79 379.52H539.44V431.58H539.79V379.52Z" fill="#B4ABAB"/>
<path id="Vector_46" d="M542.6 379.52H542.25V431.58H542.6V379.52Z" fill="#B4ABAB"/>
<path id="Vector_47" d="M545.41 379.52H545.06V431.58H545.41V379.52Z" fill="#B4ABAB"/>
<path id="Vector_48" d="M548.23 380.57H547.88V431.57H548.23V380.57Z" fill="#B4ABAB"/>
<path id="Vector_49" d="M551.04 381.27H550.69V431.22H551.04V381.27Z" fill="#B4ABAB"/>
<path id="Vector_50" d="M553.85 381.98H553.5V430.52H553.85V381.98Z" fill="#B4ABAB"/>
<path id="Vector_51" d="M556.66 383.38H556.31V429.11H556.66V383.38Z" fill="#B4ABAB"/>
<path id="Vector_52" d="M559.47 384.79H559.12V428.06H559.47V384.79Z" fill="#B4ABAB"/>
<path id="Vector_53" d="M562.28 387.25H561.93V426.65H562.28V387.25Z" fill="#B4ABAB"/>
<path id="Vector_54" d="M565.1 388.3H564.75V424.54H565.1V388.3Z" fill="#B4ABAB"/>
<path id="Vector_55" d="M567.91 390.41H567.56V422.78H567.91V390.41Z" fill="#B4ABAB"/>
<path id="Vector_56" d="M570.72 392.87H570.37V420.67H570.72V392.87Z" fill="#B4ABAB"/>
<path id="Vector_57" d="M573.53 394.98H573.18V417.51H573.53V394.98Z" fill="#B4ABAB"/>
<path id="Vector_58" d="M576.34 399.55H575.99V414.35H576.34V399.55Z" fill="#B4ABAB"/>
<path id="Vector_59" d="M542.9 432.63C539.769 432.648 536.651 432.221 533.64 431.36C526.18 429.19 520.55 424.75 517.36 418.51C514.505 412.709 513.797 406.084 515.36 399.81C518.18 387.81 529.05 376.26 546.26 379.35L546.84 379.46C552.856 380.619 558.554 383.054 563.55 386.6C592.11 406.7 598.55 404.01 598.55 403.98L599.61 403.37V407.83L598.84 407.75C589.46 406.75 574.84 417.49 566.9 423.95C560.982 428.862 553.703 431.845 546.04 432.5C544.973 432.587 543.927 432.63 542.9 432.63ZM540.75 380.25C527.47 380.25 519.07 390.01 516.7 400.13C514.08 411.32 518.38 425.45 534.03 430C537.891 431.084 541.917 431.453 545.91 431.09C553.287 430.456 560.294 427.58 565.99 422.85C573.85 416.42 588.32 405.85 598.19 406.29V405.45C595.42 405.77 586.63 404.55 562.71 387.71C557.876 384.278 552.362 381.921 546.54 380.8L545.97 380.69C544.246 380.393 542.499 380.249 540.75 380.26V380.25Z" fill="#535461"/>
<path id="Vector_60" d="M596.79 402.13H627C627.931 402.13 628.824 402.5 629.482 403.158C630.14 403.816 630.51 404.709 630.51 405.64C630.51 406.571 630.14 407.464 629.482 408.122C628.824 408.78 627.931 409.15 627 409.15H596.79V402.15V402.13Z" fill="#535461"/>
<path id="Vector_61" d="M601.01 402.13H596.79V409.16H601.01V402.13Z" fill="#F0E4E4"/>
<path id="Vector_62" d="M569.26 422.03L568.44 420.89C574.44 416.58 577.44 411.89 577.44 406.89C577.44 398.36 568.52 391.73 568.44 391.67L569.27 390.53C569.66 390.82 578.88 397.63 578.86 406.89C578.86 412.36 575.64 417.45 569.26 422.03Z" fill="#535461"/>
<path id="Vector_63" opacity="0.1" d="M730.06 289.95C729.01 287.77 728.13 284.2 727.9 278.41L707.51 291.06C708.341 292.523 708.932 294.11 709.26 295.76C712.916 296.925 716.833 296.995 720.528 295.963C724.224 294.931 727.537 292.841 730.06 289.95V289.95Z" fill="black"/>
<path id="Vector_64" d="M715.94 295.98C726.809 295.98 735.62 287.169 735.62 276.3C735.62 265.431 726.809 256.62 715.94 256.62C705.071 256.62 696.26 265.431 696.26 276.3C696.26 287.169 705.071 295.98 715.94 295.98Z" fill="#FDB797"/>
<path id="Vector_65" opacity="0.1" d="M715.01 271.45C717.01 272.25 718.34 274.13 720.24 275.1C722.97 276.49 726.24 275.77 729.3 276.34C732.73 276.99 735.87 279.34 739.3 279.02C743.42 278.66 746.43 274.34 746.3 270.21C746.17 266.08 743.45 262.38 740.09 259.98C736.73 257.58 732.73 256.26 728.8 254.98C723.8 253.33 718.4 251.67 713.23 252.86C708.41 253.97 695.43 260.35 696.1 266.39C697.19 276.1 709.99 269.45 715.01 271.45Z" fill="black"/>
<path id="Vector_66" d="M715.01 270.76C717.01 271.56 718.34 273.44 720.24 274.41C722.97 275.8 726.24 275.08 729.3 275.65C732.73 276.3 735.87 278.65 739.3 278.33C743.42 277.97 746.43 273.65 746.3 269.52C746.17 265.39 743.45 261.69 740.09 259.29C736.73 256.89 732.73 255.57 728.8 254.29C723.8 252.64 718.4 250.98 713.23 252.17C708.41 253.28 695.43 259.66 696.1 265.7C697.19 275.4 709.99 268.74 715.01 270.76Z" fill="#F55F44"/>
<path id="Vector_67" opacity="0.1" d="M744.26 387.54C744.26 387.54 745.31 396.33 748.13 399.14Z" fill="black"/>
<path id="Vector_68" opacity="0.1" d="M780.09 359.07C780.437 361.774 779.814 364.513 778.33 366.8Z" fill="black"/>
<path id="Vector_69" opacity="0.1" d="M763.26 336.58C763.26 336.58 760.1 342.91 751.66 347.12Z" fill="black"/>
<g id="Group" opacity="0.05">
<path id="Vector_70" opacity="0.05" d="M712.08 328.32C718.23 331.52 723 331.01 726.61 329.01C723.37 330.01 719.39 329.79 714.54 327.27L710.54 302.27L708.21 304.16L712.08 328.32Z" fill="black"/>
<path id="Vector_71" opacity="0.05" d="M736.33 291.77L743.33 312.86C746.84 318.13 760.9 319.54 760.9 319.54C765.82 341.68 779.7 359.08 779.7 359.08C805.36 375.95 803.78 396.86 803.78 396.86L807.29 419C805.398 420.776 803.251 422.259 800.92 423.4C804.201 422.194 807.205 420.337 809.75 417.94L806.26 395.8C806.26 395.8 807.84 374.89 782.18 358.02C782.18 358.02 768.3 340.62 763.38 318.48C763.38 318.48 749.32 317.07 745.81 311.8L738.81 290.71L733.01 291.94L733.13 292.45L736.33 291.77Z" fill="black"/>
<path id="Vector_72" opacity="0.05" d="M742.26 408.81L739.71 411.36L739.8 412.67L743.08 409.39L742.26 408.81Z" fill="black"/>
</g>
<path id="Vector_73" opacity="0.1" d="M756.89 397.74C756.89 397.74 771.65 387.55 783.6 387.55Z" fill="black"/>
<path id="Vector_74" opacity="0.1" d="M726.66 360.83C726.66 360.83 735.1 355.56 737.56 351.34Z" fill="black"/>
<path id="Vector_75" d="M619.81 398.45C619.81 398.45 615.59 403.72 617.7 405.45C619.81 407.18 625.08 399.45 625.08 399.45L619.81 398.45Z" fill="#FDB797"/>
<path id="Vector_76" d="M786.26 503.71C786.26 503.71 777.26 512.15 771.91 515.31L776.77 519.88L792.26 517.76V509.32L786.26 503.71Z" fill="#F0E4E4"/>
<path id="Vector_77" d="M727.89 512.85L724.73 511.44V520.58L742.3 523.39V515.31L727.89 512.85Z" fill="#F0E4E4"/>
<path id="Vector_78" opacity="0.05" d="M722.26 511.45C722.26 511.45 722.96 523.05 705.74 529.73C705.74 529.73 687.81 531.49 700.12 540.27C712.43 549.05 749.68 537.81 749.68 537.81C749.68 537.81 748.98 526.56 744.76 517.42C744.76 517.45 724.38 516.06 722.26 511.45Z" fill="black"/>
<path id="Vector_79" d="M722.26 512.45C722.26 512.45 722.96 524.05 705.74 530.73C705.74 530.73 687.81 532.49 700.12 541.27C712.43 550.05 749.68 538.81 749.68 538.81C749.68 538.81 748.98 527.56 744.76 518.42C744.76 518.45 724.38 517.06 722.26 512.45Z" fill="#F0E4E4"/>
<path id="Vector_80" opacity="0.05" d="M773.58 518.87C773.58 518.87 773.93 531.52 762.68 533.98C751.43 536.44 767.25 543.82 773.58 542.06C779.91 540.3 805.92 517.45 805.92 517.45C805.92 517.45 796.78 503.45 790.81 503.45C790.81 503.45 779.91 521.69 773.58 518.87Z" fill="black"/>
</g>
</g>
<path id="Vector_81" d="M773.58 519.87C773.58 519.87 773.93 532.52 762.68 534.98C751.43 537.44 767.25 544.82 773.58 543.06C779.91 541.3 805.92 518.45 805.92 518.45C805.92 518.45 796.78 504.45 790.81 504.45C790.81 504.45 779.91 522.69 773.58 519.87Z" fill="#F0E4E4"/>
</g>
<g id="Net">
<path id="Vector_82" d="M1036.11 465.47H126.11V483.47H1036.11V465.47Z" fill="#F0E4E4"/>
<g id="Net_2">
<path id="Vector_83" d="M257.11 464.46L307.09 565.97L357.08 667.47H257.11H157.14L207.12 565.97L257.11 464.46Z" stroke="#F0E4E4" stroke-miterlimit="10"/>
<path id="Vector_84" d="M99.11 474.46L149.09 575.97L199.08 677.47H99.11V474.46Z" stroke="#F0E4E4" stroke-miterlimit="10"/>
<path id="Vector_85" d="M188.11 474.46L238.09 575.97L288.08 677.47H188.11L108.11 670.47L113.63 625.71L138.12 575.97L188.11 474.46Z" stroke="#F0E4E4" stroke-miterlimit="10"/>
<path id="Vector_86" d="M305.11 474.46L355.09 575.97L405.08 677.47H305.11H205.14L255.12 575.97L305.11 474.46Z" stroke="#F0E4E4" stroke-miterlimit="10"/>
<path id="Vector_87" d="M398.11 474.46L448.09 575.97L498.08 677.47H398.11H298.14L348.12 575.97L398.11 474.46Z" stroke="#F0E4E4" stroke-miterlimit="10"/>
<path id="Vector_88" d="M498.11 474.46L548.09 575.97L598.08 677.47H498.11H398.14L448.12 575.97L498.11 474.46Z" stroke="#F0E4E4" stroke-miterlimit="10"/>
<path id="Vector_89" d="M598.11 474.46L648.09 575.97L698.08 677.47H598.11H498.14L548.12 575.97L598.11 474.46Z" stroke="#F0E4E4" stroke-miterlimit="10"/>
<path id="Vector_90" d="M700.11 474.46L750.09 575.97L800.08 677.47H700.11H600.14L650.12 575.97L700.11 474.46Z" stroke="#F0E4E4" stroke-miterlimit="10"/>
<path id="Vector_91" d="M801.11 474.46L851.09 575.97L901.08 677.47H801.11H701.14L751.12 575.97L801.11 474.46Z" stroke="#F0E4E4" stroke-miterlimit="10"/>
<path id="Vector_92" d="M895.11 474.46L945.09 575.97L995.08 677.47H895.11H795.14L845.12 575.97L895.11 474.46Z" stroke="#F0E4E4" stroke-miterlimit="10"/>
<path id="Vector_93" d="M1035.78 677.47H980.14L1030.12 575.97L1032.11 571.94L1035.78 677.47Z" stroke="#F0E4E4" stroke-miterlimit="10"/>
<path id="Vector_94" d="M955.11 474.46L1005.09 575.97L1055.08 677.47H955.11H855.14L905.12 575.97L955.11 474.46Z" stroke="#F0E4E4" stroke-miterlimit="10"/>
<path id="Vector_95" d="M984.11 474.46L1034.09 575.97L1045.11 598.33V677.47H984.11H884.14L934.12 575.97L984.11 474.46Z" stroke="#F0E4E4" stroke-miterlimit="10"/>
<path id="Vector_96" d="M1017.11 474.46V677.47H917.14L967.12 575.97L1017.11 474.46Z" stroke="#F0E4E4" stroke-miterlimit="10"/>
<path id="Vector_97" d="M454.11 474.46L504.09 575.97L554.08 677.47H454.11H354.14L404.12 575.97L454.11 474.46Z" stroke="#F0E4E4" stroke-miterlimit="10"/>
<path id="Vector_98" d="M651.11 474.46L701.09 575.97L751.08 677.47H651.11H551.14L601.12 575.97L651.11 474.46Z" stroke="#F0E4E4" stroke-miterlimit="10"/>
<path id="Vector_99" d="M848.11 474.46L898.09 575.97L948.08 677.47H848.11H748.14L798.12 575.97L848.11 474.46Z" stroke="#F0E4E4" stroke-miterlimit="10"/>
<path id="Vector_100" d="M1045.11 474.46L1049.54 483.47L1043.11 576.47L1045.11 677.47H945.14L995.12 575.97L1045.11 474.46Z" stroke="#F0E4E4" stroke-miterlimit="10"/>
<path id="Vector_101" d="M855.11 678.47L805.12 576.97L755.14 475.46H855.11H955.08L905.09 576.97L855.11 678.47Z" stroke="#F0E4E4" stroke-miterlimit="10"/>
<path id="Vector_102" d="M650.11 678.47L600.12 576.97L550.14 475.46H650.11H750.08L700.09 576.97L650.11 678.47Z" stroke="#F0E4E4" stroke-miterlimit="10"/>
<path id="Vector_103" d="M445.11 678.47L395.12 576.97L345.14 475.46H445.11H545.08L495.09 576.97L445.11 678.47Z" stroke="#F0E4E4" stroke-miterlimit="10"/>
<path id="Vector_104" d="M240.11 678.47L190.12 576.97L140.14 475.46H240.11H340.08L290.09 576.97L240.11 678.47Z" stroke="#F0E4E4" stroke-miterlimit="10"/>
<path id="Vector_105" d="M1036.11 670.47H126.11V688.47H1036.11V670.47Z" fill="#F0E4E4"/>
<path id="Vector_106" d="M133.11 450.47H97.11V703.47H133.11V450.47Z" fill="#535461"/>
<path id="Vector_107" d="M1054.11 460.47H1018.11V713.47H1054.11V460.47Z" fill="#535461"/>
</g>
</g>
<defs>
<linearGradient id="paint0_linear" x1="1095" y1="38.5001" x2="69" y2="725" gradientUnits="userSpaceOnUse">
<stop stop-color="#63E3FF"/>
<stop offset="1" stop-color="#22B473"/>
</linearGradient>
<linearGradient id="paint1_linear" x1="732.14" y1="547.46" x2="732.14" y2="237.46" gradientUnits="userSpaceOnUse">
<stop stop-color="#808080" stop-opacity="0.25"/>
<stop offset="0.54" stop-color="#808080" stop-opacity="0.12"/>
<stop offset="1" stop-color="#808080" stop-opacity="0.1"/>
</linearGradient>
</defs>
</svg>
